<?xml version="1.0" encoding="us-ascii" standalone="no"?><svg xmlns="http://www.w3.org/2000/svg" xmlns:xlink="http://www.w3.org/1999/xlink" contentStyleType="text/css" height="419px" preserveAspectRatio="none" style="width:738px;height:419px;background:#FFFFFF;" version="1.1" viewBox="0 0 738 419" width="738px" zoomAndPan="magnify"><defs/><g><line style="stroke:#181818;stroke-width:0.5;stroke-dasharray:5.0,5.0;" x1="30" x2="30" y1="37.6094" y2="382.7734"/><line style="stroke:#181818;stroke-width:0.5;stroke-dasharray:5.0,5.0;" x1="417" x2="417" y1="37.6094" y2="382.7734"/><rect fill="#E2E2F0" height="31.6094" rx="2.5" ry="2.5" style="stroke:#181818;stroke-width:0.5;" width="50" x="5" y="5"/><text fill="#000000" font-family="sans-serif" font-size="14" lengthAdjust="spacing" textLength="36" x="12" y="26.5332">Client</text><rect fill="#E2E2F0" height="31.6094" rx="2.5" ry="2.5" style="stroke:#181818;stroke-width:0.5;" width="50" x="5" y="381.7734"/><text fill="#000000" font-family="sans-serif" font-size="14" lengthAdjust="spacing" textLength="36" x="12" y="403.3066">Client</text><rect fill="#E2E2F0" height="31.6094" rx="2.5" ry="2.5" style="stroke:#181818;stroke-width:0.5;" width="56" x="389" y="5"/><text fill="#000000" font-family="sans-serif" font-size="14" lengthAdjust="spacing" textLength="42" x="396" y="26.5332">Server</text><rect fill="#E2E2F0" height="31.6094" rx="2.5" ry="2.5" style="stroke:#181818;stroke-width:0.5;" width="56" x="389" y="381.7734"/><text fill="#000000" font-family="sans-serif" font-size="14" lengthAdjust="spacing" textLength="42" x="396" y="403.3066">Server</text><line style="stroke:#181818;stroke-width:1.0;" x1="30" x2="72" y1="69.9609" y2="69.9609"/><line style="stroke:#181818;stroke-width:1.0;" x1="72" x2="72" y1="69.9609" y2="82.9609"/><line style="stroke:#181818;stroke-width:1.0;" x1="31" x2="72" y1="82.9609" y2="82.9609"/><polygon fill="#181818" points="41,78.9609,31,82.9609,41,86.9609,37,82.9609" style="stroke:#181818;stroke-width:1.0;"/><text fill="#000000" font-family="sans-serif" font-size="13" lengthAdjust="spacing" textLength="253" x="37" y="65.1045">apertura del programma senza connessione</text><line style="stroke:#181818;stroke-width:1.0;" x1="417" x2="459" y1="113.3125" y2="113.3125"/><line style="stroke:#181818;stroke-width:1.0;" x1="459" x2="459" y1="113.3125" y2="126.3125"/><line style="stroke:#181818;stroke-width:1.0;" x1="418" x2="459" y1="126.3125" y2="126.3125"/><polygon fill="#181818" points="428,122.3125,418,126.3125,428,130.3125,424,126.3125" style="stroke:#181818;stroke-width:1.0;"/><text fill="#000000" font-family="sans-serif" font-size="13" lengthAdjust="spacing" textLength="307" x="424" y="108.4561">In ascolto con apertura della connessione (result = 0)</text><polygon fill="#181818" points="405,152.6641,415,156.6641,405,160.6641,409,156.6641" style="stroke:#181818;stroke-width:1.0;"/><line style="stroke:#181818;stroke-width:1.0;" x1="30" x2="411" y1="156.6641" y2="156.6641"/><text fill="#000000" font-family="sans-serif" font-size="13" lengthAdjust="spacing" textLength="253" x="37" y="151.8076">Inviando l'username instaura la connessione</text><polygon fill="#181818" points="405,183.0156,415,187.0156,405,191.0156,409,187.0156" style="stroke:#181818;stroke-width:1.0;"/><line style="stroke:#181818;stroke-width:1.0;" x1="30" x2="411" y1="187.0156" y2="187.0156"/><text fill="#000000" font-family="sans-serif" font-size="13" lengthAdjust="spacing" textLength="117" x="37" y="182.1592">Inviando il comando.</text><polygon fill="#181818" points="41,213.3672,31,217.3672,41,221.3672,37,217.3672" style="stroke:#181818;stroke-width:1.0;"/><line style="stroke:#181818;stroke-width:1.0;" x1="35" x2="416" y1="217.3672" y2="217.3672"/><text fill="#000000" font-family="sans-serif" font-size="13" lengthAdjust="spacing" textLength="363" x="47" y="212.5107">Restituisce al client o ERRORE;NUM o SUCCESS (successo)</text><polygon fill="#181818" points="405,243.7188,415,247.7188,405,251.7188,409,247.7188" style="stroke:#181818;stroke-width:1.0;"/><line style="stroke:#181818;stroke-width:1.0;" x1="30" x2="411" y1="247.7188" y2="247.7188"/><text fill="#000000" font-family="sans-serif" font-size="13" lengthAdjust="spacing" textLength="122" x="37" y="242.8623">Invia il comando EXIT</text><polygon fill="#181818" points="41,274.0703,31,278.0703,41,282.0703,37,278.0703" style="stroke:#181818;stroke-width:1.0;"/><line style="stroke:#181818;stroke-width:1.0;" x1="35" x2="416" y1="278.0703" y2="278.0703"/><text fill="#000000" font-family="sans-serif" font-size="13" lengthAdjust="spacing" textLength="162" x="47" y="273.2139">Restituisce il comando EXIT</text><line style="stroke:#181818;stroke-width:1.0;" x1="417" x2="459" y1="308.4219" y2="308.4219"/><line style="stroke:#181818;stroke-width:1.0;" x1="459" x2="459" y1="308.4219" y2="321.4219"/><line style="stroke:#181818;stroke-width:1.0;" x1="418" x2="459" y1="321.4219" y2="321.4219"/><polygon fill="#181818" points="428,317.4219,418,321.4219,428,325.4219,424,321.4219" style="stroke:#181818;stroke-width:1.0;"/><text fill="#000000" font-family="sans-serif" font-size="13" lengthAdjust="spacing" textLength="302" x="424" y="303.5654">Deferenzia il server dalla mappa hash delle sessioni.</text><line style="stroke:#181818;stroke-width:1.0;" x1="30" x2="72" y1="351.7734" y2="351.7734"/><line style="stroke:#181818;stroke-width:1.0;" x1="72" x2="72" y1="351.7734" y2="364.7734"/><line style="stroke:#181818;stroke-width:1.0;" x1="31" x2="72" y1="364.7734" y2="364.7734"/><polygon fill="#181818" points="41,360.7734,31,364.7734,41,368.7734,37,364.7734" style="stroke:#181818;stroke-width:1.0;"/><text fill="#000000" font-family="sans-serif" font-size="13" lengthAdjust="spacing" textLength="212" x="37" y="346.917">client viene chiuso e chiude il socket</text><!--SRC=[XL2xJiD04Epp5TCH2YBg86YCYnGaaaqasjLvmQVSmxgzSy7NSxOns4MWESrfPsTcfp2QNSJT4ueHxK4TXvW2eM63BlYFGDOIXDqdGNddM4HxnvkQGyzXM9tG7WS74kLDz0DnfMHMkzW6bcGY7d5_kob-ClmAzPfSus5kad1mP1dQIQH1RItrrxOscMa7k5kadG-jMAAEIOjYK6PEEXvbLPsgyk5uVicV-bmKPLrZAqcfREclnbsueNmxlFxZU9qzgpxpEuVS-YGjqxoXeKfBNKTeITgnMyxJiGszMwIRNRyFw_FBKArEuZ61PemXNbquVW40]--></g></svg>